<?xml version="1.0" encoding="utf-8"?>
<!-- Generator: Adobe Illustrator 27.0.0, SVG Export Plug-In . SVG Version: 6.00 Build 0)  -->
<svg version="1.1" id="Layer_1" xmlns="http://www.w3.org/2000/svg" xmlns:xlink="http://www.w3.org/1999/xlink" x="0px" y="0px"
	 viewBox="0 0 3159.23 503.62" style="enable-background:new 0 0 3159.23 503.62;" xml:space="preserve">
<style type="text/css">
	.st0{fill:none;}
	.st1{fill:#FFFFFF;}
	.st2{fill:#0048FF;}
	.st3{fill:#405FAA;}
</style>
<g>
	<path class="st0" d="M234.97,272.1c-3.23,0.54-6.55,0.83-9.93,0.83c-15.15,0-28.99-5.62-39.56-14.87
		c-10.57,9.25-24.41,14.87-39.56,14.87c-3.38,0-6.7-0.29-9.93-0.83c0.54,3.23,0.83,6.55,0.83,9.93c0,15.15-5.62,28.99-14.87,39.56
		c9.25,10.57,14.87,24.41,14.87,39.56c0,3.38-0.29,6.7-0.83,9.93c3.23-0.54,6.55-0.83,9.93-0.83c15.15,0,28.99,5.62,39.56,14.87
		c10.57-9.25,24.41-14.87,39.56-14.87c3.38,0,6.7,0.29,9.93,0.83c-0.54-3.23-0.83-6.55-0.83-9.93c0-15.15,5.62-28.99,14.87-39.56
		c-9.25-10.57-14.87-24.41-14.87-39.56C234.14,278.65,234.44,275.34,234.97,272.1z"/>
	<path class="st1" d="M76.69,269.37c-6.99,0-12.66,5.67-12.66,12.66s5.67,12.66,12.66,12.66c6.99,0,12.66-5.67,12.66-12.66
		S83.68,269.37,76.69,269.37z"/>
	<path class="st1" d="M76.69,348.49c-6.99,0-12.66,5.67-12.66,12.66c0,6.99,5.67,12.66,12.66,12.66c6.99,0,12.66-5.67,12.66-12.66
		C89.35,354.16,83.68,348.49,76.69,348.49z"/>
	<path class="st2" d="M294.27,221.9c-3.38,0-6.7,0.29-9.93,0.83c0.54-3.23,0.83-6.55,0.83-9.93c0-33.21-26.92-60.13-60.13-60.13
		c-15.15,0-28.99,5.62-39.56,14.87c-10.57-9.25-24.41-14.87-39.56-14.87c-33.21,0-60.13,26.92-60.13,60.13
		c0,3.38,0.29,6.7,0.83,9.93c-3.23-0.54-6.55-0.83-9.93-0.83c-33.21,0-60.13,26.92-60.13,60.13c0,15.15,5.62,28.99,14.87,39.56
		c-9.25,10.57-14.87,24.41-14.87,39.56c0,33.21,26.92,60.13,60.13,60.13c3.38,0,6.7-0.29,9.93-0.83c-0.54,3.23-0.83,6.55-0.83,9.93
		c0,33.21,26.92,60.13,60.13,60.13c15.15,0,28.99-5.62,39.56-14.87c10.57,9.25,24.41,14.87,39.56,14.87
		c33.21,0,60.13-26.92,60.13-60.13c0-3.38-0.29-6.7-0.83-9.93c3.23,0.54,6.55,0.83,9.93,0.83c33.21,0,60.13-26.92,60.13-60.13
		c0-15.15-5.62-28.99-14.87-39.56c9.25-10.57,14.87-24.41,14.87-39.56C354.41,248.82,327.48,221.9,294.27,221.9z M76.69,373.81
		c-6.99,0-12.66-5.67-12.66-12.66c0-6.99,5.67-12.66,12.66-12.66c6.99,0,12.66,5.67,12.66,12.66
		C89.35,368.15,83.68,373.81,76.69,373.81z M76.69,294.69c-6.99,0-12.66-5.67-12.66-12.66s5.67-12.66,12.66-12.66
		c6.99,0,12.66,5.67,12.66,12.66S83.68,294.69,76.69,294.69z M225.04,200.14c6.99,0,12.66,5.67,12.66,12.66
		c0,6.99-5.67,12.66-12.66,12.66s-12.66-5.67-12.66-12.66C212.38,205.81,218.05,200.14,225.04,200.14z M145.92,200.14
		c6.99,0,12.66,5.67,12.66,12.66c0,6.99-5.67,12.66-12.66,12.66c-6.99,0-12.66-5.67-12.66-12.66
		C133.26,205.81,138.93,200.14,145.92,200.14z M145.92,443.04c-6.99,0-12.66-5.67-12.66-12.66c0-6.99,5.67-12.66,12.66-12.66
		c6.99,0,12.66,5.67,12.66,12.66C158.58,437.38,152.91,443.04,145.92,443.04z M225.04,443.04c-6.99,0-12.66-5.67-12.66-12.66
		c0-6.99,5.67-12.66,12.66-12.66s12.66,5.67,12.66,12.66C237.7,437.38,232.04,443.04,225.04,443.04z M234.14,361.15
		c0,3.38,0.29,6.7,0.83,9.93c-3.23-0.54-6.55-0.83-9.93-0.83c-15.15,0-28.99,5.62-39.56,14.87c-10.57-9.25-24.41-14.87-39.56-14.87
		c-3.38,0-6.7,0.29-9.93,0.83c0.54-3.23,0.83-6.55,0.83-9.93c0-15.15-5.62-28.99-14.87-39.56c9.25-10.57,14.87-24.41,14.87-39.56
		c0-3.38-0.29-6.7-0.83-9.93c3.23,0.54,6.55,0.83,9.93,0.83c15.15,0,28.99-5.62,39.56-14.87c10.57,9.25,24.41,14.87,39.56,14.87
		c3.38,0,6.7-0.29,9.93-0.83c-0.54,3.23-0.83,6.55-0.83,9.93c0,15.15,5.62,28.99,14.87,39.56
		C239.76,332.17,234.14,346,234.14,361.15z M294.27,373.81c-6.99,0-12.66-5.67-12.66-12.66c0-6.99,5.67-12.66,12.66-12.66
		c6.99,0,12.66,5.67,12.66,12.66C306.93,368.15,301.27,373.81,294.27,373.81z M294.27,294.69c-6.99,0-12.66-5.67-12.66-12.66
		s5.67-12.66,12.66-12.66c6.99,0,12.66,5.67,12.66,12.66S301.27,294.69,294.27,294.69z"/>
	<path class="st1" d="M294.27,269.37c-6.99,0-12.66,5.67-12.66,12.66s5.67,12.66,12.66,12.66c6.99,0,12.66-5.67,12.66-12.66
		S301.27,269.37,294.27,269.37z"/>
	<path class="st1" d="M294.27,348.49c-6.99,0-12.66,5.67-12.66,12.66c0,6.99,5.67,12.66,12.66,12.66c6.99,0,12.66-5.67,12.66-12.66
		C306.93,354.16,301.27,348.49,294.27,348.49z"/>
	<path class="st1" d="M145.92,417.73c-6.99,0-12.66,5.67-12.66,12.66c0,6.99,5.67,12.66,12.66,12.66c6.99,0,12.66-5.67,12.66-12.66
		C158.58,423.39,152.91,417.73,145.92,417.73z"/>
	<path class="st1" d="M225.04,417.73c-6.99,0-12.66,5.67-12.66,12.66c0,6.99,5.67,12.66,12.66,12.66s12.66-5.67,12.66-12.66
		C237.7,423.39,232.04,417.73,225.04,417.73z"/>
	<path class="st1" d="M145.92,225.46c6.99,0,12.66-5.67,12.66-12.66c0-6.99-5.67-12.66-12.66-12.66c-6.99,0-12.66,5.67-12.66,12.66
		C133.26,219.79,138.93,225.46,145.92,225.46z"/>
	<path class="st1" d="M225.04,225.46c6.99,0,12.66-5.67,12.66-12.66c0-6.99-5.67-12.66-12.66-12.66s-12.66,5.67-12.66,12.66
		C212.38,219.79,218.05,225.46,225.04,225.46z"/>
	<path class="st2" d="M543.11,258.07c10.57,9.25,24.41,14.87,39.56,14.87c33.21,0,60.13-26.92,60.13-60.13s-26.92-60.13-60.13-60.13
		c-15.15,0-28.99,5.62-39.56,14.87c-10.57-9.25-24.41-14.87-39.56-14.87c-33.21,0-60.13,26.92-60.13,60.13
		c0,3.36,0.29,6.65,0.82,9.86c-3.1-0.49-6.28-0.76-9.52-0.76c-18.06,0-34.24,7.97-45.27,20.57c-9.25,10.57-14.87,24.41-14.87,39.56
		c0,33.21,26.92,60.13,60.13,60.13c3.29,0,6.52-0.27,9.67-0.78c-0.62,3.47-0.96,7.03-0.96,10.67c0,7.27,1.29,14.23,3.65,20.68
		c-5.42-1.61-11.16-2.49-17.1-2.49c-33.21,0-60.13,26.92-60.13,60.13s26.92,60.13,60.13,60.13c15.15,0,28.99-5.62,39.56-14.87
		c10.57,9.25,24.41,14.87,39.56,14.87c33.21,0,60.13-26.92,60.13-60.13c0-7.27-1.29-14.23-3.65-20.68
		c5.42,1.61,11.16,2.49,17.1,2.49c33.21,0,60.13-26.92,60.13-60.13s-26.92-60.13-60.13-60.13c-15.15,0-28.99,5.62-39.56,14.87
		c-10.57-9.25-24.41-14.87-39.56-14.87c-3.29,0-6.52,0.27-9.67,0.78c0.62-3.47,0.96-7.03,0.96-10.67c0-3.36-0.29-6.65-0.82-9.86
		c3.1,0.49,6.28,0.76,9.53,0.76C518.7,272.93,532.54,267.32,543.11,258.07z M582.67,200.14c6.99,0,12.66,5.67,12.66,12.66
		c0,6.99-5.67,12.66-12.66,12.66c-6.99,0-12.66-5.67-12.66-12.66C570.01,205.81,575.68,200.14,582.67,200.14z M429.97,443.04
		c-6.99,0-12.66-5.67-12.66-12.66c0-6.99,5.67-12.66,12.66-12.66c6.99,0,12.66,5.67,12.66,12.66
		C442.63,437.38,436.96,443.04,429.97,443.04z M582.67,339.4c6.99,0,12.66,5.67,12.66,12.66c0,6.99-5.67,12.66-12.66,12.66
		c-6.99,0-12.66-5.67-12.66-12.66C570.01,345.06,575.68,339.4,582.67,339.4z M434.71,294.69c-6.99,0-12.66-5.67-12.66-12.66
		c0-6.99,5.67-12.66,12.66-12.66c6.99,0,12.66,5.67,12.66,12.66C447.37,289.02,441.71,294.69,434.71,294.69z M509.09,443.04
		c-6.99,0-12.66-5.67-12.66-12.66c0-6.99,5.67-12.66,12.66-12.66c6.99,0,12.66,5.67,12.66,12.66
		C521.75,437.38,516.08,443.04,509.09,443.04z M503.55,339.4c6.99,0,12.66,5.67,12.66,12.66c0,6.99-5.67,12.66-12.66,12.66
		c-6.99,0-12.66-5.67-12.66-12.66C490.89,345.06,496.56,339.4,503.55,339.4z M490.89,212.8c0-6.99,5.67-12.66,12.66-12.66
		c6.99,0,12.66,5.67,12.66,12.66c0,6.99-5.67,12.66-12.66,12.66C496.56,225.46,490.89,219.79,490.89,212.8z"/>
	<path class="st1" d="M516.21,212.8c0-6.99-5.67-12.66-12.66-12.66c-6.99,0-12.66,5.67-12.66,12.66c0,6.99,5.67,12.66,12.66,12.66
		C510.54,225.46,516.21,219.79,516.21,212.8z"/>
	<path class="st1" d="M582.67,225.46c6.99,0,12.66-5.67,12.66-12.66c0-6.99-5.67-12.66-12.66-12.66c-6.99,0-12.66,5.67-12.66,12.66
		C570.01,219.79,575.68,225.46,582.67,225.46z"/>
	<path class="st2" d="M843.37,258.07c10.57,9.25,24.41,14.87,39.56,14.87c33.21,0,60.13-26.92,60.13-60.13s-26.92-60.13-60.13-60.13
		c-15.15,0-28.99,5.62-39.56,14.87c-10.57-9.25-24.41-14.87-39.56-14.87c-10.08,0-19.58,2.49-27.92,6.88
		c-2.28,4.63-5.14,8.91-8.48,12.77c-0.08-0.09-0.15-0.18-0.22-0.27c-1.17-1.34-2.42-2.62-3.7-3.85c3.74-3.38,7.91-6.29,12.41-8.65
		c3.94-8,6.16-17,6.16-26.53c0-15.15-5.62-28.99-14.87-39.56c-11.02-12.6-27.21-20.57-45.27-20.57s-34.24,7.97-45.27,20.57
		c-9.25,10.57-14.87,24.41-14.87,39.56c0,15.03,5.53,28.76,14.64,39.3c-9.11,10.54-14.64,24.26-14.64,39.29
		c0,13.84,4.69,26.58,12.54,36.74c-8.09,10.24-12.94,23.17-12.94,37.24c0,15.15,5.62,28.99,14.87,39.56
		c-9.25,10.57-14.87,24.41-14.87,39.56c0,33.21,26.92,60.13,60.13,60.13c4.23,0,8.37-0.44,12.35-1.28
		c-0.13,1.64-0.22,3.29-0.22,4.97c0,33.21,26.92,60.13,60.13,60.13c15.15,0,28.99-5.62,39.56-14.87
		c10.57,9.25,24.41,14.87,39.56,14.87c33.21,0,60.13-26.92,60.13-60.13s-26.92-60.13-60.13-60.13c-15.15,0-28.99,5.62-39.56,14.87
		c-10.57-9.25-24.41-14.87-39.56-14.87c-4.23,0-8.37,0.44-12.35,1.28c0.13-1.64,0.22-3.29,0.22-4.97c0-15.15-5.62-28.99-14.87-39.56
		c9.25-10.57,14.87-24.41,14.87-39.56c0-6.3-0.97-12.37-2.77-18.07c7.59,3.46,16.03,5.41,24.92,5.41
		C818.97,272.93,832.8,267.32,843.37,258.07z M882.93,200.14c6.99,0,12.66,5.67,12.66,12.66c0,6.99-5.67,12.66-12.66,12.66
		s-12.66-5.67-12.66-12.66C870.27,205.81,875.94,200.14,882.93,200.14z M872.91,415.88c6.99,0,12.66,5.67,12.66,12.66
		c0,6.99-5.67,12.66-12.66,12.66s-12.66-5.67-12.66-12.66C860.25,421.55,865.92,415.88,872.91,415.88z M721.53,272.93
		c6.99,0,12.66,5.67,12.66,12.66c0,6.99-5.67,12.66-12.66,12.66c-6.99,0-12.66-5.67-12.66-12.66
		C708.87,278.6,714.54,272.93,721.53,272.93z M721.92,198.96c6.99,0,12.66,5.67,12.66,12.66c0,6.99-5.67,12.66-12.66,12.66
		c-6.99,0-12.66-5.67-12.66-12.66C709.26,204.62,714.93,198.96,721.92,198.96z M721.92,120.36c6.99,0,12.66,5.67,12.66,12.66
		c0,6.99-5.67,12.66-12.66,12.66c-6.99,0-12.66-5.67-12.66-12.66C709.26,126.03,714.93,120.36,721.92,120.36z M721.53,377.37
		c-6.99,0-12.66-5.67-12.66-12.66c0-6.99,5.67-12.66,12.66-12.66c6.99,0,12.66,5.67,12.66,12.66
		C734.19,371.71,728.52,377.37,721.53,377.37z M793.79,415.88c6.99,0,12.66,5.67,12.66,12.66c0,6.99-5.67,12.66-12.66,12.66
		s-12.66-5.67-12.66-12.66C781.13,421.55,786.8,415.88,793.79,415.88z M762.24,256.22c-7.21-6.91-12.72-15.59-15.79-25.35
		c8.95,4.08,16.72,10.29,22.67,17.98C767.03,251.5,764.74,253.97,762.24,256.22z M791.15,212.8c0-6.99,5.67-12.66,12.66-12.66
		s12.66,5.67,12.66,12.66c0,6.99-5.67,12.66-12.66,12.66S791.15,219.79,791.15,212.8z"/>
	<path class="st1" d="M816.47,212.8c0-6.99-5.67-12.66-12.66-12.66s-12.66,5.67-12.66,12.66c0,6.99,5.67,12.66,12.66,12.66
		S816.47,219.79,816.47,212.8z"/>
	<path class="st1" d="M882.93,225.46c6.99,0,12.66-5.67,12.66-12.66c0-6.99-5.67-12.66-12.66-12.66s-12.66,5.67-12.66,12.66
		C870.27,219.79,875.94,225.46,882.93,225.46z"/>
	<path class="st2" d="M1157.09,151.48c-15.15,0-28.99,5.62-39.56,14.87c-10.57-9.25-24.41-14.87-39.56-14.87
		c-33.21,0-60.13,26.92-60.13,60.13c0,3,0.23,5.94,0.65,8.83c-2.55-0.33-5.14-0.52-7.77-0.52c-18.06,0-34.24,7.97-45.27,20.57
		c-9.25,10.57-14.87,24.41-14.87,39.56c0,13.84,4.69,26.58,12.54,36.74c-8.09,10.24-12.94,23.17-12.94,37.24
		c0,15.15,5.62,28.99,14.87,39.56c-9.25,10.57-14.87,24.41-14.87,39.56c0,33.21,26.92,60.13,60.13,60.13
		c33.21,0,60.13-26.92,60.13-60.13c0-15.15-5.62-28.99-14.87-39.56c9.25-10.57,14.87-24.41,14.87-39.56
		c0-13.84-4.69-26.58-12.54-36.74c8.09-10.24,12.94-23.17,12.94-37.24c0-3-0.23-5.94-0.65-8.82c2.55,0.33,5.14,0.52,7.77,0.52
		c15.15,0,28.99-5.62,39.56-14.87c10.57,9.25,24.41,14.87,39.56,14.87c33.21,0,60.13-26.92,60.13-60.13
		S1190.3,151.48,1157.09,151.48z M1010.71,267.4c6.99,0,12.66,5.67,12.66,12.66c0,6.99-5.67,12.66-12.66,12.66
		c-6.99,0-12.66-5.67-12.66-12.66C998.05,273.06,1003.72,267.4,1010.71,267.4z M1010.32,445.81c-6.99,0-12.66-5.67-12.66-12.66
		s5.67-12.66,12.66-12.66c6.99,0,12.66,5.67,12.66,12.66S1017.31,445.81,1010.32,445.81z M1010.32,366.69
		c-6.99,0-12.66-5.67-12.66-12.66s5.67-12.66,12.66-12.66c6.99,0,12.66,5.67,12.66,12.66S1017.31,366.69,1010.32,366.69z
		 M1077.97,224.28c-6.99,0-12.66-5.67-12.66-12.66c0-6.99,5.67-12.66,12.66-12.66s12.66,5.67,12.66,12.66
		C1090.63,218.61,1084.96,224.28,1077.97,224.28z M1157.09,224.28c-6.99,0-12.66-5.67-12.66-12.66c0-6.99,5.67-12.66,12.66-12.66
		s12.66,5.67,12.66,12.66C1169.75,218.61,1164.08,224.28,1157.09,224.28z"/>
	<path class="st1" d="M1077.97,198.96c-6.99,0-12.66,5.67-12.66,12.66c0,6.99,5.67,12.66,12.66,12.66s12.66-5.67,12.66-12.66
		C1090.63,204.62,1084.96,198.96,1077.97,198.96z"/>
	<path class="st1" d="M1157.09,198.96c-6.99,0-12.66,5.67-12.66,12.66c0,6.99,5.67,12.66,12.66,12.66s12.66-5.67,12.66-12.66
		C1169.75,204.62,1164.08,198.96,1157.09,198.96z"/>
	<path class="st1" d="M1675.73,189.46c-6.99,0-12.66,5.67-12.66,12.66c0,6.99,5.67,12.66,12.66,12.66c6.99,0,12.66-5.67,12.66-12.66
		C1688.38,195.13,1682.72,189.46,1675.73,189.46z"/>
	<path class="st1" d="M1754.85,214.78c6.99,0,12.66-5.67,12.66-12.66c0-6.99-5.67-12.66-12.66-12.66c-6.99,0-12.66,5.67-12.66,12.66
		C1742.19,209.11,1747.85,214.78,1754.85,214.78z"/>
	<path class="st1" d="M2378.32,189.46c-6.99,0-12.66,5.67-12.66,12.66c0,6.99,5.67,12.66,12.66,12.66c6.99,0,12.66-5.67,12.66-12.66
		C2390.98,195.13,2385.31,189.46,2378.32,189.46z"/>
	<path class="st1" d="M2470.1,202.12c0-6.99-5.67-12.66-12.66-12.66s-12.66,5.67-12.66,12.66c0,6.99,5.67,12.66,12.66,12.66
		S2470.1,209.11,2470.1,202.12z"/>
	<path class="st1" d="M1291.59,198.96c-6.99,0-12.66,5.67-12.66,12.66c0,6.99,5.67,12.66,12.66,12.66c6.99,0,12.66-5.67,12.66-12.66
		C1304.25,204.62,1298.59,198.96,1291.59,198.96z"/>
	<path class="st1" d="M1370.71,198.96c-6.99,0-12.66,5.67-12.66,12.66c0,6.99,5.67,12.66,12.66,12.66c6.99,0,12.66-5.67,12.66-12.66
		C1383.37,204.62,1377.71,198.96,1370.71,198.96z"/>
	<path class="st1" d="M721.53,298.25c6.99,0,12.66-5.67,12.66-12.66c0-6.99-5.67-12.66-12.66-12.66c-6.99,0-12.66,5.67-12.66,12.66
		C708.87,292.59,714.54,298.25,721.53,298.25z"/>
	<path class="st1" d="M721.53,352.06c-6.99,0-12.66,5.67-12.66,12.66c0,6.99,5.67,12.66,12.66,12.66c6.99,0,12.66-5.67,12.66-12.66
		C734.19,357.72,728.52,352.06,721.53,352.06z"/>
	<path class="st1" d="M793.79,441.2c6.99,0,12.66-5.67,12.66-12.66c0-6.99-5.67-12.66-12.66-12.66s-12.66,5.67-12.66,12.66
		C781.13,435.53,786.8,441.2,793.79,441.2z"/>
	<path class="st1" d="M872.91,441.2c6.99,0,12.66-5.67,12.66-12.66c0-6.99-5.67-12.66-12.66-12.66s-12.66,5.67-12.66,12.66
		C860.25,435.53,865.92,441.2,872.91,441.2z"/>
	<path class="st1" d="M503.55,364.71c6.99,0,12.66-5.67,12.66-12.66c0-6.99-5.67-12.66-12.66-12.66c-6.99,0-12.66,5.67-12.66,12.66
		C490.89,359.05,496.56,364.71,503.55,364.71z"/>
	<path class="st1" d="M582.67,364.71c6.99,0,12.66-5.67,12.66-12.66c0-6.99-5.67-12.66-12.66-12.66c-6.99,0-12.66,5.67-12.66,12.66
		C570.01,359.05,575.68,364.71,582.67,364.71z"/>
	<path class="st1" d="M429.97,417.73c-6.99,0-12.66,5.67-12.66,12.66c0,6.99,5.67,12.66,12.66,12.66c6.99,0,12.66-5.67,12.66-12.66
		C442.63,423.39,436.96,417.73,429.97,417.73z"/>
	<path class="st1" d="M509.09,417.73c-6.99,0-12.66,5.67-12.66,12.66c0,6.99,5.67,12.66,12.66,12.66c6.99,0,12.66-5.67,12.66-12.66
		C521.75,423.39,516.08,417.73,509.09,417.73z"/>
	<path class="st3" d="M746.45,230.87c3.07,9.76,8.58,18.44,15.79,25.35c2.49-2.26,4.79-4.73,6.88-7.37
		C763.17,241.16,755.4,234.95,746.45,230.87z"/>
	<path class="st1" d="M721.92,224.27c6.99,0,12.66-5.67,12.66-12.66c0-6.99-5.67-12.66-12.66-12.66c-6.99,0-12.66,5.67-12.66,12.66
		C709.26,218.61,714.93,224.27,721.92,224.27z"/>
	<path class="st1" d="M1010.32,341.37c-6.99,0-12.66,5.67-12.66,12.66s5.67,12.66,12.66,12.66c6.99,0,12.66-5.67,12.66-12.66
		S1017.31,341.37,1010.32,341.37z"/>
	<path class="st1" d="M1010.32,420.49c-6.99,0-12.66,5.67-12.66,12.66s5.67,12.66,12.66,12.66c6.99,0,12.66-5.67,12.66-12.66
		S1017.31,420.49,1010.32,420.49z"/>
	<path class="st1" d="M1010.71,292.71c6.99,0,12.66-5.67,12.66-12.66c0-6.99-5.67-12.66-12.66-12.66c-6.99,0-12.66,5.67-12.66,12.66
		C998.05,287.05,1003.72,292.71,1010.71,292.71z"/>
	<path class="st1" d="M1443.51,341.37c-6.99,0-12.66,5.67-12.66,12.66s5.67,12.66,12.66,12.66c6.99,0,12.66-5.67,12.66-12.66
		S1450.5,341.37,1443.51,341.37z"/>
	<path class="st1" d="M1443.51,420.49c-6.99,0-12.66,5.67-12.66,12.66s5.67,12.66,12.66,12.66c6.99,0,12.66-5.67,12.66-12.66
		S1450.5,420.49,1443.51,420.49z"/>
	<path class="st2" d="M1489.17,240.49c-11.02-12.6-27.21-20.57-45.27-20.57c-4.78,0-9.43,0.57-13.89,1.63
		c0.54-3.23,0.83-6.55,0.83-9.94c0-33.21-26.92-60.13-60.13-60.13c-15.15,0-28.99,5.62-39.56,14.87
		c-10.57-9.25-24.41-14.87-39.56-14.87c-33.21,0-60.13,26.92-60.13,60.13s26.92,60.13,60.13,60.13c15.15,0,28.99-5.62,39.56-14.87
		c10.57,9.25,24.41,14.87,39.56,14.87c4.78,0,9.43-0.58,13.89-1.63c-0.54,3.23-0.83,6.55-0.83,9.94c0,13.84,4.69,26.58,12.54,36.74
		c-8.09,10.24-12.94,23.17-12.94,37.24c0,5.94,0.87,11.67,2.48,17.08c-6.11-2.1-12.67-3.24-19.49-3.24c-3.68,0-7.27,0.35-10.76,0.98
		c1.34-4.98,2.06-10.21,2.06-15.62c0-15.15-5.62-28.99-14.87-39.56c-11.02-12.6-27.21-20.57-45.27-20.57s-34.24,7.97-45.27,20.57
		c-9.25,10.57-14.87,24.41-14.87,39.56c0,33.21,26.92,60.13,60.13,60.13c3.68,0,7.27-0.35,10.77-0.98
		c-1.34,4.98-2.07,10.21-2.07,15.62c0,33.21,26.92,60.13,60.13,60.13c13.29,0,25.56-4.32,35.52-11.62
		c10.8,10.37,25.47,16.76,41.63,16.76c33.21,0,60.13-26.92,60.13-60.13c0-15.15-5.62-28.99-14.87-39.56
		c9.25-10.57,14.87-24.41,14.87-39.56c0-13.84-4.69-26.58-12.54-36.74c8.09-10.24,12.94-23.17,12.94-37.24
		C1504.03,264.9,1498.42,251.07,1489.17,240.49z M1291.59,224.28c-6.99,0-12.66-5.67-12.66-12.66c0-6.99,5.67-12.66,12.66-12.66
		c6.99,0,12.66,5.67,12.66,12.66C1304.25,218.61,1298.59,224.28,1291.59,224.28z M1370.71,224.28c-6.99,0-12.66-5.67-12.66-12.66
		c0-6.99,5.67-12.66,12.66-12.66c6.99,0,12.66,5.67,12.66,12.66C1383.37,218.61,1377.71,224.28,1370.71,224.28z M1443.9,267.4
		c6.99,0,12.66,5.67,12.66,12.66c0,6.99-5.67,12.66-12.66,12.66c-6.99,0-12.66-5.67-12.66-12.66
		C1431.24,273.06,1436.91,267.4,1443.9,267.4z M1297.53,365.9c-6.99,0-12.66-5.67-12.66-12.66s5.67-12.66,12.66-12.66
		c6.99,0,12.66,5.67,12.66,12.66S1304.52,365.9,1297.53,365.9z M1366.36,440.67c-6.99,0-12.66-5.67-12.66-12.66
		c0-6.99,5.67-12.66,12.66-12.66c6.99,0,12.66,5.67,12.66,12.66C1379.02,435,1373.35,440.67,1366.36,440.67z M1443.51,445.81
		c-6.99,0-12.66-5.67-12.66-12.66s5.67-12.66,12.66-12.66c6.99,0,12.66,5.67,12.66,12.66S1450.5,445.81,1443.51,445.81z
		 M1443.51,366.69c-6.99,0-12.66-5.67-12.66-12.66s5.67-12.66,12.66-12.66c6.99,0,12.66,5.67,12.66,12.66
		S1450.5,366.69,1443.51,366.69z"/>
	<path class="st1" d="M1443.9,292.71c6.99,0,12.66-5.67,12.66-12.66c0-6.99-5.67-12.66-12.66-12.66c-6.99,0-12.66,5.67-12.66,12.66
		C1431.24,287.05,1436.91,292.71,1443.9,292.71z"/>
	<path class="st3" d="M767.19,172.06c0.08,0.09,0.15,0.18,0.22,0.27c3.34-3.86,6.2-8.15,8.48-12.77c-4.5,2.36-8.67,5.27-12.41,8.65
		C764.77,169.44,766.01,170.71,767.19,172.06z"/>
	<path class="st1" d="M721.92,145.68c6.99,0,12.66-5.67,12.66-12.66c0-6.99-5.67-12.66-12.66-12.66c-6.99,0-12.66,5.67-12.66,12.66
		C709.26,140.01,714.93,145.68,721.92,145.68z"/>
	<path class="st1" d="M1585.53,340.58c-6.99,0-12.66,5.67-12.66,12.66c0,6.99,5.67,12.66,12.66,12.66c6.99,0,12.66-5.67,12.66-12.66
		C1598.19,346.25,1592.52,340.58,1585.53,340.58z"/>
	<path class="st1" d="M1585.53,419.7c-6.99,0-12.66,5.67-12.66,12.66s5.67,12.66,12.66,12.66c6.99,0,12.66-5.67,12.66-12.66
		S1592.52,419.7,1585.53,419.7z"/>
	<path class="st1" d="M1585.92,266.6c-6.99,0-12.66,5.67-12.66,12.66c0,6.99,5.67,12.66,12.66,12.66c6.99,0,12.66-5.67,12.66-12.66
		C1598.58,272.27,1592.91,266.6,1585.92,266.6z"/>
	<path class="st1" d="M1797.97,340.58c-6.99,0-12.66,5.67-12.66,12.66c0,6.99,5.67,12.66,12.66,12.66c6.99,0,12.66-5.67,12.66-12.66
		C1810.63,346.25,1804.96,340.58,1797.97,340.58z"/>
	<path class="st1" d="M1797.97,419.7c-6.99,0-12.66,5.67-12.66,12.66s5.67,12.66,12.66,12.66c6.99,0,12.66-5.67,12.66-12.66
		S1804.96,419.7,1797.97,419.7z"/>
	<path class="st1" d="M1941.97,267c-6.99,0-12.66,5.67-12.66,12.66c0,6.99,5.67,12.66,12.66,12.66c6.99,0,12.66-5.67,12.66-12.66
		C1954.63,272.67,1948.96,267,1941.97,267z"/>
	<path class="st1" d="M1941.97,346.12c-6.99,0-12.66,5.67-12.66,12.66c0,6.99,5.67,12.66,12.66,12.66c6.99,0,12.66-5.67,12.66-12.66
		C1954.63,351.79,1948.96,346.12,1941.97,346.12z"/>
	<path class="st1" d="M2093.88,439.48c6.99,0,12.66-5.67,12.66-12.66c0-6.99-5.67-12.66-12.66-12.66c-6.99,0-12.66,5.67-12.66,12.66
		C2081.22,433.82,2086.89,439.48,2093.88,439.48z"/>
	<path class="st1" d="M2014.76,439.48c6.99,0,12.66-5.67,12.66-12.66c0-6.99-5.67-12.66-12.66-12.66s-12.66,5.67-12.66,12.66
		C2002.1,433.82,2007.77,439.48,2014.76,439.48z"/>
	<path class="st1" d="M2093.88,221.11c6.99,0,12.66-5.67,12.66-12.66c0-6.99-5.67-12.66-12.66-12.66c-6.99,0-12.66,5.67-12.66,12.66
		C2081.22,215.44,2086.89,221.11,2093.88,221.11z"/>
	<path class="st1" d="M2014.76,195.79c-6.99,0-12.66,5.67-12.66,12.66c0,6.99,5.67,12.66,12.66,12.66s12.66-5.67,12.66-12.66
		C2027.42,201.46,2021.75,195.79,2014.76,195.79z"/>
	<path class="st2" d="M2165.09,228.23c-5.23,0-10.3,0.68-15.14,1.94c2.61-6.74,4.06-14.06,4.06-21.72
		c0-33.21-26.92-60.13-60.13-60.13c-15.15,0-28.99,5.62-39.56,14.87c-10.57-9.25-24.41-14.87-39.56-14.87
		c-33.21,0-60.13,26.92-60.13,60.13c0,4.37,0.48,8.63,1.36,12.74c-4.5-1.08-9.19-1.66-14.02-1.66c-33.21,0-60.13,26.92-60.13,60.13
		c0,15.15,5.62,28.99,14.87,39.56c-9.25,10.57-14.87,24.41-14.87,39.56c0,33.21,26.92,60.13,60.13,60.13c4.61,0,9.09-0.54,13.4-1.52
		c-0.48,3.07-0.74,6.22-0.74,9.43c0,33.21,26.92,60.13,60.13,60.13c15.15,0,28.99-5.62,39.56-14.87
		c10.57,9.25,24.41,14.87,39.56,14.87c33.21,0,60.13-26.92,60.13-60.13s-26.92-60.13-60.13-60.13c-15.15,0-28.99,5.62-39.56,14.87
		c-10.57-9.25-24.41-14.87-39.56-14.87c-4.61,0-9.09,0.54-13.4,1.52c0.48-3.07,0.74-6.22,0.74-9.43c0-15.15-5.62-28.99-14.87-39.56
		c9.25-10.57,14.87-24.41,14.87-39.56c0-4.37-0.48-8.63-1.36-12.74c4.5,1.08,9.19,1.66,14.02,1.66c5.23,0,10.3-0.68,15.14-1.94
		c-2.61,6.74-4.06,14.06-4.06,21.72c0,33.21,26.92,60.13,60.13,60.13c15.15,0,28.99-5.62,39.56-14.87
		c10.57,9.25,24.41,14.87,39.56,14.87c33.21,0,60.13-26.92,60.13-60.13S2198.3,228.23,2165.09,228.23z M1941.97,371.44
		c-6.99,0-12.66-5.67-12.66-12.66c0-6.99,5.67-12.66,12.66-12.66c6.99,0,12.66,5.67,12.66,12.66
		C1954.63,365.77,1948.96,371.44,1941.97,371.44z M1941.97,292.32c-6.99,0-12.66-5.67-12.66-12.66c0-6.99,5.67-12.66,12.66-12.66
		c6.99,0,12.66,5.67,12.66,12.66C1954.63,286.65,1948.96,292.32,1941.97,292.32z M2093.88,414.16c6.99,0,12.66,5.67,12.66,12.66
		c0,6.99-5.67,12.66-12.66,12.66c-6.99,0-12.66-5.67-12.66-12.66C2081.22,419.83,2086.89,414.16,2093.88,414.16z M2014.76,414.16
		c6.99,0,12.66,5.67,12.66,12.66c0,6.99-5.67,12.66-12.66,12.66s-12.66-5.67-12.66-12.66
		C2002.1,419.83,2007.77,414.16,2014.76,414.16z M2014.76,221.11c-6.99,0-12.66-5.67-12.66-12.66c0-6.99,5.67-12.66,12.66-12.66
		s12.66,5.67,12.66,12.66C2027.42,215.44,2021.75,221.11,2014.76,221.11z M2093.88,195.79c6.99,0,12.66,5.67,12.66,12.66
		c0,6.99-5.67,12.66-12.66,12.66c-6.99,0-12.66-5.67-12.66-12.66C2081.22,201.46,2086.89,195.79,2093.88,195.79z M2085.97,301.02
		c-6.99,0-12.66-5.67-12.66-12.66c0-6.99,5.67-12.66,12.66-12.66c6.99,0,12.66,5.67,12.66,12.66
		C2098.63,295.35,2092.96,301.02,2085.97,301.02z M2165.09,301.02c-6.99,0-12.66-5.67-12.66-12.66c0-6.99,5.67-12.66,12.66-12.66
		s12.66,5.67,12.66,12.66C2177.75,295.35,2172.08,301.02,2165.09,301.02z"/>
	<path class="st1" d="M2165.09,275.7c-6.99,0-12.66,5.67-12.66,12.66c0,6.99,5.67,12.66,12.66,12.66s12.66-5.67,12.66-12.66
		C2177.75,281.37,2172.08,275.7,2165.09,275.7z"/>
	<path class="st1" d="M2085.97,275.7c-6.99,0-12.66,5.67-12.66,12.66c0,6.99,5.67,12.66,12.66,12.66c6.99,0,12.66-5.67,12.66-12.66
		C2098.63,281.37,2092.96,275.7,2085.97,275.7z"/>
	<path class="st2" d="M1843.63,239.7c-8.15-9.32-19.13-16.09-31.59-19c1.9-5.85,2.94-12.1,2.94-18.59
		c0-33.21-26.92-60.13-60.13-60.13c-15.15,0-28.99,5.62-39.56,14.87c-10.57-9.25-24.41-14.87-39.56-14.87
		c-17.52,0-33.28,7.49-44.27,19.44c-0.09-0.11-0.18-0.22-0.27-0.32c-11.02-12.6-27.21-20.57-45.27-20.57
		c-18.06,0-34.24,7.97-45.27,20.57c-9.25,10.57-14.87,24.41-14.87,39.56c0,15.03,5.53,28.76,14.64,39.3
		c-9.11,10.54-14.64,24.26-14.64,39.29c0,13.84,4.69,26.58,12.54,36.74c-8.09,10.24-12.94,23.17-12.94,37.24
		c0,15.15,5.62,28.99,14.87,39.56c-9.25,10.57-14.87,24.41-14.87,39.56c0,33.21,26.92,60.13,60.13,60.13
		c33.21,0,60.13-26.92,60.13-60.13c0-15.15-5.62-28.99-14.87-39.56c9.25-10.57,14.87-24.41,14.87-39.56
		c0-13.84-4.69-26.58-12.54-36.74c8.09-10.24,12.94-23.17,12.94-37.24c0-11.17-3.06-21.62-8.37-30.58c-2.71-2.22-5.21-4.67-7.5-7.32
		c-2.31-2.68-4.4-5.56-6.21-8.63c2.59,2.12,5.01,4.45,7.21,6.97c0.08,0.09,0.15,0.18,0.22,0.27c2.34,2.7,4.44,5.62,6.27,8.71
		c10.36,8.48,23.61,13.57,38.04,13.57c15.15,0,28.99-5.62,39.56-14.87c7.29,6.38,16.13,11.03,25.88,13.3
		c-1.9,5.85-2.94,12.09-2.94,18.58c0,13.84,4.69,26.58,12.54,36.74c-8.09,10.24-12.94,23.17-12.94,37.24
		c0,15.15,5.62,28.99,14.87,39.56c-9.25,10.57-14.87,24.41-14.87,39.56c0,33.21,26.92,60.13,60.13,60.13s60.13-26.92,60.13-60.13
		c0-15.15-5.62-28.99-14.87-39.56c9.25-10.57,14.87-24.41,14.87-39.56c0-13.84-4.69-26.58-12.54-36.74
		c8.09-10.24,12.94-23.17,12.94-37.24C1858.49,264.11,1852.88,250.28,1843.63,239.7z M1585.92,188.01c6.99,0,12.66,5.67,12.66,12.66
		c0,6.99-5.67,12.66-12.66,12.66c-6.99,0-12.66-5.67-12.66-12.66C1573.26,193.68,1578.93,188.01,1585.92,188.01z M1585.92,291.92
		c-6.99,0-12.66-5.67-12.66-12.66c0-6.99,5.67-12.66,12.66-12.66c6.99,0,12.66,5.67,12.66,12.66
		C1598.58,286.26,1592.91,291.92,1585.92,291.92z M1585.53,445.02c-6.99,0-12.66-5.67-12.66-12.66s5.67-12.66,12.66-12.66
		c6.99,0,12.66,5.67,12.66,12.66S1592.52,445.02,1585.53,445.02z M1585.53,365.9c-6.99,0-12.66-5.67-12.66-12.66
		c0-6.99,5.67-12.66,12.66-12.66c6.99,0,12.66,5.67,12.66,12.66C1598.19,360.23,1592.52,365.9,1585.53,365.9z M1675.73,214.78
		c-6.99,0-12.66-5.67-12.66-12.66c0-6.99,5.67-12.66,12.66-12.66c6.99,0,12.66,5.67,12.66,12.66
		C1688.38,209.11,1682.72,214.78,1675.73,214.78z M1798.36,266.6c6.99,0,12.66,5.67,12.66,12.66c0,6.99-5.67,12.66-12.66,12.66
		c-6.99,0-12.66-5.67-12.66-12.66C1785.7,272.27,1791.37,266.6,1798.36,266.6z M1754.85,189.46c6.99,0,12.66,5.67,12.66,12.66
		c0,6.99-5.67,12.66-12.66,12.66c-6.99,0-12.66-5.67-12.66-12.66C1742.19,195.13,1747.85,189.46,1754.85,189.46z M1797.97,445.02
		c-6.99,0-12.66-5.67-12.66-12.66s5.67-12.66,12.66-12.66c6.99,0,12.66,5.67,12.66,12.66S1804.96,445.02,1797.97,445.02z
		 M1797.97,365.9c-6.99,0-12.66-5.67-12.66-12.66c0-6.99,5.67-12.66,12.66-12.66c6.99,0,12.66,5.67,12.66,12.66
		C1810.63,360.23,1804.96,365.9,1797.97,365.9z"/>
	<path class="st1" d="M1798.36,291.92c6.99,0,12.66-5.67,12.66-12.66c0-6.99-5.67-12.66-12.66-12.66c-6.99,0-12.66,5.67-12.66,12.66
		C1785.7,286.26,1791.37,291.92,1798.36,291.92z"/>
	<path class="st3" d="M1631.19,239.7c-2.2-2.52-4.62-4.85-7.21-6.97c1.82,3.06,3.9,5.95,6.21,8.63c2.29,2.65,4.79,5.1,7.5,7.32
		c-1.83-3.09-3.93-6.01-6.27-8.71C1631.34,239.88,1631.26,239.79,1631.19,239.7z"/>
	<path class="st1" d="M1585.92,213.33c6.99,0,12.66-5.67,12.66-12.66c0-6.99-5.67-12.66-12.66-12.66c-6.99,0-12.66,5.67-12.66,12.66
		C1573.26,207.66,1578.93,213.33,1585.92,213.33z"/>
	<path class="st1" d="M2301.88,340.58c-6.99,0-12.66,5.67-12.66,12.66c0,6.99,5.67,12.66,12.66,12.66c6.99,0,12.66-5.67,12.66-12.66
		C2314.54,346.25,2308.87,340.58,2301.88,340.58z"/>
	<path class="st1" d="M2301.88,419.7c-6.99,0-12.66,5.67-12.66,12.66s5.67,12.66,12.66,12.66c6.99,0,12.66-5.67,12.66-12.66
		S2308.87,419.7,2301.88,419.7z"/>
	<path class="st1" d="M2302.27,266.6c-6.99,0-12.66,5.67-12.66,12.66c0,6.99,5.67,12.66,12.66,12.66c6.99,0,12.66-5.67,12.66-12.66
		C2314.93,272.27,2309.27,266.6,2302.27,266.6z"/>
	<path class="st1" d="M2518.67,340.58c-6.99,0-12.66,5.67-12.66,12.66c0,6.99,5.67,12.66,12.66,12.66c6.99,0,12.66-5.67,12.66-12.66
		C2531.33,346.25,2525.66,340.58,2518.67,340.58z"/>
	<path class="st1" d="M2518.67,419.7c-6.99,0-12.66,5.67-12.66,12.66s5.67,12.66,12.66,12.66c6.99,0,12.66-5.67,12.66-12.66
		S2525.66,419.7,2518.67,419.7z"/>
	<path class="st2" d="M2564.33,239.7c-11.02-12.6-27.21-20.57-45.27-20.57c-1.34,0-2.67,0.06-3.99,0.14
		c1.62-5.44,2.5-11.19,2.5-17.16c0-33.21-26.92-60.13-60.13-60.13c-15.15,0-28.99,5.62-39.56,14.87
		c-10.57-9.25-24.41-14.87-39.56-14.87c-14.02,0-26.91,4.81-37.14,12.86c-10.49-8.92-24.06-14.31-38.9-14.31
		c-18.06,0-34.24,7.97-45.27,20.57c-9.25,10.57-14.87,24.41-14.87,39.56c0,15.03,5.53,28.76,14.64,39.3
		c-9.11,10.54-14.64,24.26-14.64,39.29c0,13.84,4.69,26.58,12.54,36.74c-8.09,10.24-12.94,23.17-12.94,37.24
		c0,15.15,5.62,28.99,14.87,39.56c-9.25,10.57-14.87,24.41-14.87,39.56c0,33.21,26.92,60.13,60.13,60.13s60.13-26.92,60.13-60.13
		c0-15.15-5.62-28.99-14.87-39.56c9.25-10.57,14.87-24.41,14.87-39.56c0-13.84-4.69-26.58-12.54-36.74
		c8.09-10.24,12.94-23.17,12.94-37.24c0-7.1-1.25-13.91-3.51-20.24c6.1,2.08,12.63,3.23,19.43,3.23c15.15,0,28.99-5.62,39.56-14.87
		c10.57,9.25,24.41,14.87,39.56,14.87c1.34,0,2.67-0.06,4-0.15c-1.62,5.44-2.5,11.19-2.5,17.16c0,13.84,4.69,26.58,12.54,36.74
		c-8.09,10.24-12.94,23.17-12.94,37.24c0,15.15,5.62,28.99,14.87,39.56c-9.25,10.57-14.87,24.41-14.87,39.56
		c0,33.21,26.92,60.13,60.13,60.13s60.13-26.92,60.13-60.13c0-15.15-5.62-28.99-14.87-39.56c9.25-10.57,14.87-24.41,14.87-39.56
		c0-13.84-4.69-26.58-12.54-36.74c8.09-10.24,12.94-23.17,12.94-37.24C2579.2,264.11,2573.58,250.28,2564.33,239.7z M2302.27,291.92
		c-6.99,0-12.66-5.67-12.66-12.66c0-6.99,5.67-12.66,12.66-12.66c6.99,0,12.66,5.67,12.66,12.66
		C2314.93,286.26,2309.27,291.92,2302.27,291.92z M2302.27,188.01c6.99,0,12.66,5.67,12.66,12.66c0,6.99-5.67,12.66-12.66,12.66
		c-6.99,0-12.66-5.67-12.66-12.66C2289.61,193.68,2295.28,188.01,2302.27,188.01z M2301.88,445.02c-6.99,0-12.66-5.67-12.66-12.66
		s5.67-12.66,12.66-12.66c6.99,0,12.66,5.67,12.66,12.66S2308.87,445.02,2301.88,445.02z M2301.88,365.9
		c-6.99,0-12.66-5.67-12.66-12.66c0-6.99,5.67-12.66,12.66-12.66c6.99,0,12.66,5.67,12.66,12.66
		C2314.54,360.23,2308.87,365.9,2301.88,365.9z M2378.32,214.78c-6.99,0-12.66-5.67-12.66-12.66c0-6.99,5.67-12.66,12.66-12.66
		c6.99,0,12.66,5.67,12.66,12.66C2390.98,209.11,2385.31,214.78,2378.32,214.78z M2519.07,266.6c6.99,0,12.66,5.67,12.66,12.66
		c0,6.99-5.67,12.66-12.66,12.66c-6.99,0-12.66-5.67-12.66-12.66C2506.41,272.27,2512.07,266.6,2519.07,266.6z M2457.44,214.78
		c-6.99,0-12.66-5.67-12.66-12.66c0-6.99,5.67-12.66,12.66-12.66s12.66,5.67,12.66,12.66
		C2470.1,209.11,2464.43,214.78,2457.44,214.78z M2518.67,445.02c-6.99,0-12.66-5.67-12.66-12.66s5.67-12.66,12.66-12.66
		c6.99,0,12.66,5.67,12.66,12.66S2525.66,445.02,2518.67,445.02z M2518.67,365.9c-6.99,0-12.66-5.67-12.66-12.66
		c0-6.99,5.67-12.66,12.66-12.66c6.99,0,12.66,5.67,12.66,12.66C2531.33,360.23,2525.66,365.9,2518.67,365.9z"/>
	<path class="st1" d="M2506.41,279.26c0,6.99,5.67,12.66,12.66,12.66c6.99,0,12.66-5.67,12.66-12.66c0-6.99-5.67-12.66-12.66-12.66
		C2512.07,266.6,2506.41,272.27,2506.41,279.26z"/>
	<path class="st1" d="M2640.91,188.27c-6.99,0-12.66,5.67-12.66,12.66c0,6.99,5.67,12.66,12.66,12.66c6.99,0,12.66-5.67,12.66-12.66
		C2653.57,193.94,2647.9,188.27,2640.91,188.27z"/>
	<path class="st2" d="M2720.82,126.56c33.21,0,60.13-26.92,60.13-60.13c0-15.15-5.62-28.99-14.87-39.56
		c-11.02-12.6-27.21-20.57-45.27-20.57s-34.24,7.97-45.27,20.57c-9.25,10.57-14.87,24.41-14.87,39.56
		C2660.69,99.64,2687.61,126.56,2720.82,126.56z M2720.82,53.77c6.99,0,12.66,5.67,12.66,12.66c0,6.99-5.67,12.66-12.66,12.66
		c-6.99,0-12.66-5.67-12.66-12.66C2708.16,59.44,2713.83,53.77,2720.82,53.77z"/>
	<path class="st1" d="M2720.82,79.09c6.99,0,12.66-5.67,12.66-12.66c0-6.99-5.67-12.66-12.66-12.66c-6.99,0-12.66,5.67-12.66,12.66
		C2708.16,73.42,2713.83,79.09,2720.82,79.09z"/>
	<path class="st1" d="M2302.27,213.33c6.99,0,12.66-5.67,12.66-12.66c0-6.99-5.67-12.66-12.66-12.66c-6.99,0-12.66,5.67-12.66,12.66
		C2289.61,207.66,2295.28,213.33,2302.27,213.33z"/>
	<path class="st1" d="M2722.8,340.58c-6.99,0-12.66,5.67-12.66,12.66c0,6.99,5.67,12.66,12.66,12.66c6.99,0,12.66-5.67,12.66-12.66
		C2735.46,346.25,2729.79,340.58,2722.8,340.58z"/>
	<path class="st1" d="M2722.8,419.7c-6.99,0-12.66,5.67-12.66,12.66s5.67,12.66,12.66,12.66c6.99,0,12.66-5.67,12.66-12.66
		S2729.79,419.7,2722.8,419.7z"/>
	<path class="st1" d="M2723.2,266.6c-6.99,0-12.66,5.67-12.66,12.66c0,6.99,5.67,12.66,12.66,12.66c6.99,0,12.66-5.67,12.66-12.66
		C2735.86,272.27,2730.19,266.6,2723.2,266.6z"/>
	<path class="st2" d="M2768.46,161.11c-11.02-12.6-27.21-20.57-45.27-20.57c-15.99,0-30.51,6.26-41.28,16.44
		c-10.74-10.03-25.15-16.18-41.01-16.18c-18.06,0-34.24,7.97-45.27,20.57c-9.25,10.57-14.87,24.41-14.87,39.56
		c0,33.21,26.92,60.13,60.13,60.13c9.94,0,19.3-2.42,27.56-6.69c-3.46,7.58-5.4,16.01-5.4,24.89c0,13.84,4.69,26.58,12.54,36.74
		c-8.09,10.24-12.94,23.17-12.94,37.24c0,15.15,5.62,28.99,14.87,39.56c-9.25,10.57-14.87,24.41-14.87,39.56
		c0,33.21,26.92,60.13,60.13,60.13s60.13-26.92,60.13-60.13c0-15.15-5.62-28.99-14.87-39.56c9.25-10.57,14.87-24.41,14.87-39.56
		c0-13.84-4.69-26.58-12.54-36.74c8.09-10.24,12.94-23.17,12.94-37.24c0-15.03-5.53-28.75-14.64-39.29
		c9.12-10.54,14.64-24.27,14.64-39.3C2783.33,185.52,2777.71,171.68,2768.46,161.11z M2723.2,291.92c-6.99,0-12.66-5.67-12.66-12.66
		c0-6.99,5.67-12.66,12.66-12.66c6.99,0,12.66,5.67,12.66,12.66C2735.86,286.26,2730.19,291.92,2723.2,291.92z M2723.2,188.01
		c6.99,0,12.66,5.67,12.66,12.66c0,6.99-5.67,12.66-12.66,12.66c-6.99,0-12.66-5.67-12.66-12.66
		C2710.54,193.68,2716.21,188.01,2723.2,188.01z M2640.91,213.59c-6.99,0-12.66-5.67-12.66-12.66c0-6.99,5.67-12.66,12.66-12.66
		c6.99,0,12.66,5.67,12.66,12.66C2653.57,207.93,2647.9,213.59,2640.91,213.59z M2722.8,445.02c-6.99,0-12.66-5.67-12.66-12.66
		s5.67-12.66,12.66-12.66c6.99,0,12.66,5.67,12.66,12.66S2729.79,445.02,2722.8,445.02z M2722.8,365.9
		c-6.99,0-12.66-5.67-12.66-12.66c0-6.99,5.67-12.66,12.66-12.66c6.99,0,12.66,5.67,12.66,12.66
		C2735.46,360.23,2729.79,365.9,2722.8,365.9z"/>
	<path class="st1" d="M2723.2,213.33c6.99,0,12.66-5.67,12.66-12.66c0-6.99-5.67-12.66-12.66-12.66c-6.99,0-12.66,5.67-12.66,12.66
		C2710.54,207.66,2716.21,213.33,2723.2,213.33z"/>
	<path class="st1" d="M3002.49,269.77c-6.99,0-12.66,5.67-12.66,12.66c0,6.99,5.67,12.66,12.66,12.66c6.99,0,12.66-5.67,12.66-12.66
		C3015.15,275.44,3009.49,269.77,3002.49,269.77z"/>
	<path class="st2" d="M3130.05,242.6c-11.02-12.6-27.21-20.57-45.27-20.57c-5.73,0-11.26,0.81-16.5,2.3
		c1.97-5.95,3.05-12.31,3.05-18.92c0-15.15-5.62-28.99-14.87-39.56c-11.02-12.6-27.21-20.57-45.27-20.57
		c-15.99,0-30.51,6.26-41.28,16.44c-10.74-10.03-25.15-16.18-41.01-16.18c-18.06,0-34.24,7.97-45.27,20.57
		c-9.25,10.57-14.87,24.41-14.87,39.56c0,4.68,0.55,9.22,1.56,13.59c-1.86-0.17-3.74-0.27-5.65-0.27
		c-15.15,0-28.99,5.62-39.56,14.87c-12.6,11.02-20.57,27.21-20.57,45.27c0,15.99,6.26,30.51,16.44,41.28
		c-10.03,10.74-16.18,25.15-16.18,41.01c0,18.06,7.97,34.24,20.57,45.27c10.57,9.25,24.41,14.87,39.56,14.87
		c1.41,0,2.81-0.07,4.2-0.16c-0.24,2.18-0.38,4.38-0.38,6.62c0,33.21,26.92,60.13,60.13,60.13c15.99,0,30.51-6.25,41.28-16.43
		c10.74,10.02,25.15,16.17,41,16.17c33.21,0,60.13-26.92,60.13-60.13c0-15.15-5.62-28.99-14.87-39.56
		c-11.02-12.6-27.21-20.57-45.27-20.57c-15.99,0-30.51,6.26-41.28,16.44c-10.74-10.03-25.15-16.18-41.01-16.18
		c-1.41,0-2.81,0.07-4.2,0.16c0.24-2.18,0.37-4.38,0.37-6.62c0-15.99-6.25-30.51-16.43-41.28c10.02-10.74,16.17-25.15,16.17-41
		c0-4.68-0.55-9.22-1.56-13.59c1.86,0.17,3.74,0.27,5.65,0.27c5.72,0,11.25-0.82,16.5-2.31c-1.98,5.95-3.05,12.31-3.05,18.93
		c0,33.21,26.92,60.13,60.13,60.13c15.99,0,30.51-6.25,41.28-16.43c10.74,10.02,25.15,16.17,41,16.17
		c33.21,0,60.13-26.92,60.13-60.13C3144.91,267.01,3139.29,253.18,3130.05,242.6z M2864.69,266.47c6.99,0,12.66,5.67,12.66,12.66
		c0,6.99-5.67,12.66-12.66,12.66s-12.66-5.67-12.66-12.66C2852.03,272.14,2857.7,266.47,2864.69,266.47z M2864.96,374.08
		c-6.99,0-12.66-5.67-12.66-12.66c0-6.99,5.67-12.66,12.66-12.66s12.66,5.67,12.66,12.66
		C2877.62,368.41,2871.95,374.08,2864.96,374.08z M3011.2,415.09c6.99,0,12.66,5.67,12.66,12.66c0,6.99-5.67,12.66-12.66,12.66
		c-6.99,0-12.66-5.67-12.66-12.66C2998.54,420.76,3004.21,415.09,3011.2,415.09z M2928.91,415.35c6.99,0,12.66,5.67,12.66,12.66
		c0,6.99-5.67,12.66-12.66,12.66c-6.99,0-12.66-5.67-12.66-12.66C2916.25,421.02,2921.92,415.35,2928.91,415.35z M2928.91,218.34
		c-6.99,0-12.66-5.67-12.66-12.66c0-6.99,5.67-12.66,12.66-12.66c6.99,0,12.66,5.67,12.66,12.66
		C2941.57,212.67,2935.9,218.34,2928.91,218.34z M3011.2,192.76c6.99,0,12.66,5.67,12.66,12.66c0,6.99-5.67,12.66-12.66,12.66
		c-6.99,0-12.66-5.67-12.66-12.66C2998.54,198.43,3004.21,192.76,3011.2,192.76z M3002.49,295.09c-6.99,0-12.66-5.67-12.66-12.66
		c0-6.99,5.67-12.66,12.66-12.66c6.99,0,12.66,5.67,12.66,12.66C3015.15,289.42,3009.49,295.09,3002.49,295.09z M3084.78,294.82
		c-6.99,0-12.66-5.67-12.66-12.66c0-6.99,5.67-12.66,12.66-12.66c6.99,0,12.66,5.67,12.66,12.66
		C3097.44,289.16,3091.77,294.82,3084.78,294.82z"/>
	<path class="st1" d="M3084.78,269.51c-6.99,0-12.66,5.67-12.66,12.66c0,6.99,5.67,12.66,12.66,12.66c6.99,0,12.66-5.67,12.66-12.66
		C3097.44,275.17,3091.77,269.51,3084.78,269.51z"/>
	<path class="st1" d="M2928.91,193.02c-6.99,0-12.66,5.67-12.66,12.66c0,6.99,5.67,12.66,12.66,12.66c6.99,0,12.66-5.67,12.66-12.66
		C2941.57,198.69,2935.9,193.02,2928.91,193.02z"/>
	<path class="st1" d="M3011.2,218.08c6.99,0,12.66-5.67,12.66-12.66c0-6.99-5.67-12.66-12.66-12.66c-6.99,0-12.66,5.67-12.66,12.66
		C2998.54,212.41,3004.21,218.08,3011.2,218.08z"/>
	<path class="st1" d="M2916.25,428.01c0,6.99,5.67,12.66,12.66,12.66c6.99,0,12.66-5.67,12.66-12.66c0-6.99-5.67-12.66-12.66-12.66
		C2921.92,415.35,2916.25,421.02,2916.25,428.01z"/>
	<path class="st1" d="M3011.2,440.41c6.99,0,12.66-5.67,12.66-12.66c0-6.99-5.67-12.66-12.66-12.66c-6.99,0-12.66,5.67-12.66,12.66
		C2998.54,434.74,3004.21,440.41,3011.2,440.41z"/>
	<path class="st1" d="M2877.62,361.42c0-6.99-5.67-12.66-12.66-12.66s-12.66,5.67-12.66,12.66c0,6.99,5.67,12.66,12.66,12.66
		S2877.62,368.41,2877.62,361.42z"/>
	<path class="st1" d="M2864.69,291.79c6.99,0,12.66-5.67,12.66-12.66c0-6.99-5.67-12.66-12.66-12.66s-12.66,5.67-12.66,12.66
		C2852.03,286.12,2857.7,291.79,2864.69,291.79z"/>
	<path class="st1" d="M1297.53,340.58c-6.99,0-12.66,5.67-12.66,12.66s5.67,12.66,12.66,12.66c6.99,0,12.66-5.67,12.66-12.66
		S1304.52,340.58,1297.53,340.58z"/>
	<path class="st1" d="M1366.36,415.35c-6.99,0-12.66,5.67-12.66,12.66c0,6.99,5.67,12.66,12.66,12.66c6.99,0,12.66-5.67,12.66-12.66
		C1379.02,421.02,1373.35,415.35,1366.36,415.35z"/>
	<path class="st1" d="M434.71,269.37c-6.99,0-12.66,5.67-12.66,12.66c0,6.99,5.67,12.66,12.66,12.66c6.99,0,12.66-5.67,12.66-12.66
		C447.37,275.04,441.71,269.37,434.71,269.37z"/>
</g>
</svg>
