<?xml version="1.0" encoding="utf-8"?>
<!-- Generator: Adobe Illustrator 27.0.0, SVG Export Plug-In . SVG Version: 6.00 Build 0)  -->
<svg version="1.1" id="Layer_1" xmlns="http://www.w3.org/2000/svg" xmlns:xlink="http://www.w3.org/1999/xlink" x="0px" y="0px"
	 viewBox="0 0 4240.88 3247.12" style="enable-background:new 0 0 4240.88 3247.12;" xml:space="preserve">
<style type="text/css">
	.st0{fill:none;stroke:#000000;stroke-miterlimit:10;}
</style>
<rect y="12.66" class="st0" width="385.53" height="359.38"/>
<rect x="385.53" y="12.66" class="st0" width="385.53" height="359.38"/>
<rect x="771.07" y="12.66" class="st0" width="385.53" height="359.38"/>
<rect x="1156.6" y="12.66" class="st0" width="385.53" height="359.38"/>
<rect x="1542.14" y="12.66" class="st0" width="385.53" height="359.38"/>
<rect x="1927.67" y="12.66" class="st0" width="385.53" height="359.38"/>
<rect x="2313.21" y="12.66" class="st0" width="385.53" height="359.38"/>
<rect x="2698.74" y="12.66" class="st0" width="385.53" height="359.38"/>
<rect x="3084.28" y="12.66" class="st0" width="385.53" height="359.38"/>
<rect x="3469.81" y="12.66" class="st0" width="385.53" height="359.38"/>
<rect x="3855.34" y="12.66" class="st0" width="385.53" height="359.38"/>
<rect y="372.04" class="st0" width="385.53" height="359.38"/>
<rect x="385.53" y="372.04" class="st0" width="385.53" height="359.38"/>
<rect x="771.07" y="372.04" class="st0" width="385.53" height="359.38"/>
<rect x="1156.6" y="372.04" class="st0" width="385.53" height="359.38"/>
<rect x="1542.14" y="372.04" class="st0" width="385.53" height="359.38"/>
<rect x="1927.67" y="372.04" class="st0" width="385.53" height="359.38"/>
<rect x="2313.21" y="372.04" class="st0" width="385.53" height="359.38"/>
<rect x="2698.74" y="372.04" class="st0" width="385.53" height="359.38"/>
<rect x="3084.28" y="372.04" class="st0" width="385.53" height="359.38"/>
<rect x="3469.81" y="372.04" class="st0" width="385.53" height="359.38"/>
<rect x="3855.34" y="372.04" class="st0" width="385.53" height="359.38"/>
<rect y="731.43" class="st0" width="385.53" height="359.38"/>
<rect x="385.53" y="731.43" class="st0" width="385.53" height="359.38"/>
<rect x="771.07" y="731.43" class="st0" width="385.53" height="359.38"/>
<rect x="1156.6" y="731.43" class="st0" width="385.53" height="359.38"/>
<rect x="1542.14" y="731.43" class="st0" width="385.53" height="359.38"/>
<rect x="1927.67" y="731.43" class="st0" width="385.53" height="359.38"/>
<rect x="2313.21" y="731.43" class="st0" width="385.53" height="359.38"/>
<rect x="2698.74" y="731.43" class="st0" width="385.53" height="359.38"/>
<rect x="3084.28" y="731.43" class="st0" width="385.53" height="359.38"/>
<rect x="3469.81" y="731.43" class="st0" width="385.53" height="359.38"/>
<rect x="3855.34" y="731.43" class="st0" width="385.53" height="359.38"/>
<rect y="1090.81" class="st0" width="385.53" height="359.38"/>
<rect x="385.53" y="1090.81" class="st0" width="385.53" height="359.38"/>
<rect x="771.07" y="1090.81" class="st0" width="385.53" height="359.38"/>
<rect x="1156.6" y="1090.81" class="st0" width="385.53" height="359.38"/>
<rect x="1542.14" y="1090.81" class="st0" width="385.53" height="359.38"/>
<rect x="1927.67" y="1090.81" class="st0" width="385.53" height="359.38"/>
<rect x="2313.21" y="1090.81" class="st0" width="385.53" height="359.38"/>
<rect x="2698.74" y="1090.81" class="st0" width="385.53" height="359.38"/>
<rect x="3084.28" y="1090.81" class="st0" width="385.53" height="359.38"/>
<rect x="3469.81" y="1090.81" class="st0" width="385.53" height="359.38"/>
<rect x="3855.34" y="1090.81" class="st0" width="385.53" height="359.38"/>
<rect y="1450.2" class="st0" width="385.53" height="359.38"/>
<rect x="385.53" y="1450.2" class="st0" width="385.53" height="359.38"/>
<rect x="771.07" y="1450.2" class="st0" width="385.53" height="359.38"/>
<rect x="1156.6" y="1450.2" class="st0" width="385.53" height="359.38"/>
<rect x="1542.14" y="1450.2" class="st0" width="385.53" height="359.38"/>
<rect x="1927.67" y="1450.2" class="st0" width="385.53" height="359.38"/>
<rect x="2313.21" y="1450.2" class="st0" width="385.53" height="359.38"/>
<rect x="2698.74" y="1450.2" class="st0" width="385.53" height="359.38"/>
<rect x="3084.28" y="1450.2" class="st0" width="385.53" height="359.38"/>
<rect x="3469.81" y="1450.2" class="st0" width="385.53" height="359.38"/>
<rect x="3855.34" y="1450.2" class="st0" width="385.53" height="359.38"/>
<rect y="1809.58" class="st0" width="385.53" height="359.38"/>
<rect x="385.53" y="1809.58" class="st0" width="385.53" height="359.38"/>
<rect x="771.07" y="1809.58" class="st0" width="385.53" height="359.38"/>
<rect x="1156.6" y="1809.58" class="st0" width="385.53" height="359.38"/>
<rect x="1542.14" y="1809.58" class="st0" width="385.53" height="359.38"/>
<rect x="1927.67" y="1809.58" class="st0" width="385.53" height="359.38"/>
<rect x="2313.21" y="1809.58" class="st0" width="385.53" height="359.38"/>
<rect x="2698.74" y="1809.58" class="st0" width="385.53" height="359.38"/>
<rect x="3084.28" y="1809.58" class="st0" width="385.53" height="359.38"/>
<rect x="3469.81" y="1809.58" class="st0" width="385.53" height="359.38"/>
<rect x="3855.34" y="1809.58" class="st0" width="385.53" height="359.38"/>
<rect y="2168.97" class="st0" width="385.53" height="359.38"/>
<rect x="385.53" y="2168.97" class="st0" width="385.53" height="359.38"/>
<rect x="771.07" y="2168.97" class="st0" width="385.53" height="359.38"/>
<rect x="1156.6" y="2168.97" class="st0" width="385.53" height="359.38"/>
<rect x="1542.14" y="2168.97" class="st0" width="385.53" height="359.38"/>
<rect x="1927.67" y="2168.97" class="st0" width="385.53" height="359.38"/>
<rect x="2313.21" y="2168.97" class="st0" width="385.53" height="359.38"/>
<rect x="2698.74" y="2168.97" class="st0" width="385.53" height="359.38"/>
<rect x="3084.28" y="2168.97" class="st0" width="385.53" height="359.38"/>
<rect x="3469.81" y="2168.97" class="st0" width="385.53" height="359.38"/>
<rect x="3855.34" y="2168.97" class="st0" width="385.53" height="359.38"/>
<rect y="2528.35" class="st0" width="385.53" height="359.38"/>
<rect x="385.53" y="2528.35" class="st0" width="385.53" height="359.38"/>
<rect x="771.07" y="2528.35" class="st0" width="385.53" height="359.38"/>
<rect x="1156.6" y="2528.35" class="st0" width="385.53" height="359.38"/>
<rect x="1542.14" y="2528.35" class="st0" width="385.53" height="359.38"/>
<rect x="1927.67" y="2528.35" class="st0" width="385.53" height="359.38"/>
<rect x="2313.21" y="2528.35" class="st0" width="385.53" height="359.38"/>
<rect x="2698.74" y="2528.35" class="st0" width="385.53" height="359.38"/>
<rect x="3084.28" y="2528.35" class="st0" width="385.53" height="359.38"/>
<rect x="3469.81" y="2528.35" class="st0" width="385.53" height="359.38"/>
<rect x="3855.34" y="2528.35" class="st0" width="385.53" height="359.38"/>
<rect y="2887.74" class="st0" width="385.53" height="359.38"/>
<rect x="385.53" y="2887.74" class="st0" width="385.53" height="359.38"/>
<rect x="771.07" y="2887.74" class="st0" width="385.53" height="359.38"/>
<rect x="1156.6" y="2887.74" class="st0" width="385.53" height="359.38"/>
<rect x="1542.14" y="2887.74" class="st0" width="385.53" height="359.38"/>
<rect x="1927.67" y="2887.74" class="st0" width="385.53" height="359.38"/>
<rect x="2313.21" y="2887.74" class="st0" width="385.53" height="359.38"/>
<rect x="2698.74" y="2887.74" class="st0" width="385.53" height="359.38"/>
<rect x="3084.28" y="2887.74" class="st0" width="385.53" height="359.38"/>
<rect x="3469.81" y="2887.74" class="st0" width="385.53" height="359.38"/>
<rect x="3855.34" y="2887.74" class="st0" width="385.53" height="359.38"/>
</svg>
