<?xml version="1.0" encoding="utf-8"?>
<!-- Generator: Adobe Illustrator 27.0.0, SVG Export Plug-In . SVG Version: 6.00 Build 0)  -->
<svg version="1.1" id="Layer_1" xmlns="http://www.w3.org/2000/svg" xmlns:xlink="http://www.w3.org/1999/xlink" x="0px" y="0px"
	 viewBox="0 0 121.01 116.41" style="enable-background:new 0 0 121.01 116.41;" xml:space="preserve">
<style type="text/css">
	.st0{fill:#FFFFFF;}
	.st1{fill:none;stroke:#2F6DFF;stroke-width:3.5;stroke-linecap:round;stroke-miterlimit:10;}
	.st2{fill:none;stroke:#FFBD01;stroke-width:3.5;stroke-linecap:round;stroke-miterlimit:10;}
	.st3{fill:#FFBD01;}
</style>
<circle class="st0" cx="58.09" cy="55.98" r="46.47"/>
<g>
	<g>
		<path class="st1" d="M48.51,63.21l0.05-1.47c0.12-1.43-1.01-2.65-2.44-2.66c-19.25-0.12-19.49-10.99-12.16-20.3
			c12.22-15.51,35.96-15.35,48.22,0.13c7.49,9.47,7.13,20.51-12.67,20.46c-0.96,0-1.55,1.06-1.05,1.87l9.23,13.53"/>
		<path class="st1" d="M35.21,69.01c-0.85,4.4,1.65,7.5,5.67,7.69c2.21,0.1,4.09-0.57,5.49-2.05c1.13-1.19,1.72-2.79,1.8-4.43
			l0.33-7"/>
		<line class="st1" x1="57.99" y1="57.93" x2="57.99" y2="84.74"/>
	</g>
	<path class="st2" d="M37.26,42.55c0.51-1.9,6.38-9.58,16.94-10.73"/>
	<g>
		<g>
			<path class="st3" d="M33.93,44.69c-0.39,0.77-0.71,1.59-0.87,2.44c-0.08,0.25-0.09,0.5-0.03,0.75c0.01,0.25,0.09,0.48,0.22,0.7
				c0.12,0.22,0.28,0.39,0.48,0.53c0.18,0.17,0.39,0.28,0.64,0.34c0.17,0.02,0.33,0.04,0.5,0.07c0.34,0,0.65-0.09,0.95-0.26
				c0.13-0.1,0.25-0.2,0.38-0.29c0.23-0.23,0.39-0.51,0.48-0.83c0.1-0.51,0.25-1.01,0.45-1.5c-0.06,0.15-0.13,0.3-0.19,0.45
				c0.07-0.17,0.15-0.33,0.23-0.49c0.14-0.22,0.21-0.45,0.22-0.7c0.06-0.25,0.04-0.5-0.03-0.75c-0.06-0.24-0.17-0.46-0.34-0.64
				c-0.13-0.2-0.31-0.37-0.53-0.48c-0.44-0.23-0.96-0.35-1.44-0.19C34.6,43.97,34.16,44.25,33.93,44.69L33.93,44.69z"/>
		</g>
	</g>
</g>
</svg>
