<?xml version="1.0" encoding="utf-8"?>
<!-- Generator: Adobe Illustrator 27.0.0, SVG Export Plug-In . SVG Version: 6.00 Build 0)  -->
<svg version="1.1" id="Layer_1" xmlns="http://www.w3.org/2000/svg" xmlns:xlink="http://www.w3.org/1999/xlink" x="0px" y="0px"
	 viewBox="0 0 427.98 432.41" style="enable-background:new 0 0 427.98 432.41;" xml:space="preserve">
<style type="text/css">
	.st0{fill:#0048FF;}
	.st1{fill:#FFFFFF;}
</style>
<g>
	
		<ellipse transform="matrix(0.7071 -0.7071 0.7071 0.7071 -90.2032 214.6382)" class="st0" cx="213.99" cy="216.2" rx="206.8" ry="206.8"/>
	<path class="st1" d="M154.18,272.45c14.46,17.67,30.01,33.77,46.12,46.7c32.59,26.16,60.74,34.18,95.99,13.41
		c10.8-6.36,19.06-12.76,19.06-12.76c8.44-6.76,4.91-14.66,0.45-20.12c-4.46-5.46-27.42-33.52-27.42-33.52
		c-2.62-3.2-6.42-4.49-9.84-1.69l-14.72,12.04c-9.2,7.53-19.52,7.25-31.68-1.89c-10.34-7.78-21.16-18.38-36.23-36.33
		c-14.6-18.32-22.86-31.03-28.43-42.7c-6.56-13.73-4.79-23.9,4.41-31.43l14.72-12.04c3.42-2.8,2.91-6.78,0.29-9.98
		c0,0-22.96-28.06-27.42-33.52c-4.46-5.46-11.51-10.47-19.81-3.54c0,0-7.91,6.83-16.28,16.16c-27.33,30.45-25.05,59.63-5.86,96.75
		C127.01,236.35,139.72,254.79,154.18,272.45z"/>
</g>
</svg>
